<svg width="166" height="26" viewBox="0 0 166 26" fill="none" xmlns="http://www.w3.org/2000/svg">
<path d="M19.924 4.876H14.128L9.844 25H2.068L6.352 4.876H0.628L1.276 2.14H20.536L19.924 4.876ZM26.883 9.124C29.739 9.124 31.815 9.628 33.111 10.636C34.479 11.692 35.163 13.444 35.163 15.892C35.163 17.404 34.911 18.772 34.407 19.996C33.903 21.196 33.195 22.192 32.283 22.984C30.459 24.52 27.819 25.288 24.363 25.288C21.411 25.288 19.299 24.724 18.027 23.596C16.659 22.42 15.975 20.656 15.975 18.304C15.975 16.744 16.287 15.328 16.911 14.056C17.559 12.784 18.483 11.728 19.683 10.888C21.435 9.712 23.835 9.124 26.883 9.124ZM24.435 22.84C25.035 22.84 25.551 22.504 25.983 21.832C26.439 21.16 26.799 20.344 27.063 19.384C27.327 18.4 27.519 17.392 27.639 16.36C27.783 15.304 27.855 14.392 27.855 13.624C27.855 12.952 27.783 12.448 27.639 12.112C27.519 11.752 27.243 11.572 26.811 11.572C26.163 11.572 25.599 11.92 25.119 12.616C24.663 13.312 24.291 14.14 24.003 15.1C23.715 16.06 23.499 17.044 23.355 18.052C23.235 19.06 23.175 19.876 23.175 20.5C23.175 22.06 23.595 22.84 24.435 22.84ZM47.59 9.124C50.446 9.124 52.522 9.628 53.818 10.636C55.186 11.692 55.87 13.444 55.87 15.892C55.87 17.404 55.618 18.772 55.114 19.996C54.61 21.196 53.902 22.192 52.99 22.984C51.166 24.52 48.526 25.288 45.07 25.288C42.118 25.288 40.006 24.724 38.734 23.596C37.366 22.42 36.682 20.656 36.682 18.304C36.682 16.744 36.994 15.328 37.618 14.056C38.266 12.784 39.19 11.728 40.39 10.888C42.142 9.712 44.542 9.124 47.59 9.124ZM45.142 22.84C45.742 22.84 46.258 22.504 46.69 21.832C47.146 21.16 47.506 20.344 47.77 19.384C48.034 18.4 48.226 17.392 48.346 16.36C48.49 15.304 48.562 14.392 48.562 13.624C48.562 12.952 48.49 12.448 48.346 12.112C48.226 11.752 47.95 11.572 47.518 11.572C46.87 11.572 46.306 11.92 45.826 12.616C45.37 13.312 44.998 14.14 44.71 15.1C44.422 16.06 44.206 17.044 44.062 18.052C43.942 19.06 43.882 19.876 43.882 20.5C43.882 22.06 44.302 22.84 45.142 22.84ZM63.941 25H56.597L61.709 0.807998H69.089L63.941 25ZM78.5559 14.056C78.5799 13.936 78.6039 13.816 78.6279 13.696C78.6519 13.576 78.6639 13.444 78.6639 13.3C78.6639 12.868 78.5799 12.472 78.4119 12.112C78.2679 11.728 77.9679 11.536 77.5119 11.536C77.1039 11.536 76.6959 11.716 76.2879 12.076C75.8799 12.412 75.6759 12.868 75.6759 13.444C75.6759 13.828 75.7719 14.14 75.9639 14.38C76.1799 14.596 76.4559 14.776 76.7919 14.92C77.1279 15.064 77.4999 15.184 77.9079 15.28C78.3399 15.376 78.7599 15.472 79.1679 15.568C79.7439 15.712 80.2839 15.892 80.7879 16.108C81.3159 16.3 81.7839 16.564 82.1919 16.9C82.5999 17.236 82.9239 17.656 83.1639 18.16C83.4039 18.64 83.5239 19.24 83.5239 19.96C83.5239 20.968 83.2839 21.82 82.8039 22.516C82.3479 23.188 81.6999 23.74 80.8599 24.172C80.0439 24.58 79.0719 24.868 77.9439 25.036C76.8399 25.204 75.6519 25.288 74.3799 25.288C72.4359 25.288 70.8279 25.144 69.5559 24.856C68.2839 24.568 67.3959 24.292 66.8919 24.028L67.6479 20.428H72.5079C72.4839 20.548 72.4719 20.668 72.4719 20.788C72.4719 20.884 72.4719 20.992 72.4719 21.112C72.4719 21.664 72.5919 22.108 72.8319 22.444C73.0959 22.756 73.5399 22.912 74.1639 22.912C74.8599 22.912 75.3519 22.72 75.6399 22.336C75.9519 21.928 76.1079 21.556 76.1079 21.22C76.1079 20.884 75.9759 20.596 75.7119 20.356C75.4719 20.092 75.1599 19.876 74.7759 19.708C74.3919 19.516 73.9599 19.36 73.4799 19.24C73.0239 19.096 72.5799 18.964 72.1479 18.844C71.8359 18.772 71.4759 18.652 71.0679 18.484C70.6839 18.316 70.3119 18.076 69.9519 17.764C69.5919 17.452 69.2919 17.056 69.0519 16.576C68.8119 16.072 68.6919 15.448 68.6919 14.704C68.6919 13.648 68.9439 12.772 69.4479 12.076C69.9759 11.356 70.6479 10.78 71.4639 10.348C72.3039 9.916 73.2399 9.604 74.2719 9.412C75.3279 9.22 76.3839 9.124 77.4399 9.124C78.7599 9.124 80.0079 9.244 81.1839 9.484C82.3599 9.724 83.3199 10.036 84.0639 10.42L83.2359 14.056H78.5559Z" fill="#D41D00"/>
<path d="M86.8469 15.784H98.1869L97.4669 19.06H86.0909L86.8469 15.784ZM119.968 25H112.192L114.352 14.812H109.924L107.764 25H99.9883L104.848 2.14H112.66L110.536 12.076H114.928L117.052 2.14H124.9L119.968 25ZM137.393 9.52H144.737L141.425 25H135.593L134.945 22.696H134.729C134.105 23.44 133.253 24.064 132.173 24.568C131.117 25.048 130.049 25.288 128.969 25.288C127.529 25.288 126.401 24.928 125.585 24.208C124.769 23.464 124.361 22.504 124.361 21.328C124.361 20.728 124.457 19.984 124.649 19.096C124.865 18.184 125.057 17.332 125.225 16.54L126.737 9.52H134.045L132.245 17.944C132.197 18.136 132.149 18.364 132.101 18.628C132.053 18.892 132.005 19.156 131.957 19.42C131.909 19.66 131.861 19.9 131.813 20.14C131.789 20.356 131.777 20.536 131.777 20.68C131.777 21.04 131.849 21.352 131.993 21.616C132.161 21.856 132.449 21.976 132.857 21.976C133.289 21.976 133.697 21.832 134.081 21.544C134.465 21.256 134.765 20.98 134.981 20.716L137.393 9.52ZM150.495 25H144.663L149.775 0.807998H157.155L154.815 11.824H155.067C155.859 10.912 156.747 10.264 157.731 9.88C158.739 9.472 159.735 9.268 160.719 9.268C161.559 9.268 162.255 9.4 162.807 9.664C163.383 9.904 163.839 10.24 164.175 10.672C164.511 11.104 164.751 11.62 164.895 12.22C165.039 12.82 165.111 13.456 165.111 14.128C165.111 14.464 165.087 14.968 165.039 15.64C164.991 16.312 164.883 17.068 164.715 17.908C164.547 18.724 164.307 19.576 163.995 20.464C163.683 21.328 163.263 22.12 162.735 22.84C162.231 23.56 161.583 24.148 160.791 24.604C160.023 25.06 159.099 25.288 158.019 25.288C157.371 25.288 156.735 25.216 156.111 25.072C155.511 24.928 154.959 24.736 154.455 24.496C153.975 24.256 153.543 23.98 153.159 23.668C152.799 23.332 152.535 22.996 152.367 22.66H152.115L150.495 25ZM154.563 21.796C155.139 21.796 155.619 21.496 156.003 20.896C156.387 20.272 156.699 19.552 156.939 18.736C157.179 17.896 157.347 17.068 157.443 16.252C157.563 15.412 157.623 14.788 157.623 14.38C157.623 13.9 157.539 13.504 157.371 13.192C157.227 12.88 156.951 12.724 156.543 12.724C156.063 12.724 155.619 12.904 155.211 13.264C154.803 13.6 154.503 13.888 154.311 14.128L152.907 20.572C153.075 20.86 153.291 21.136 153.555 21.4C153.843 21.664 154.179 21.796 154.563 21.796Z" fill="#282828"/>
</svg>
